Land_normalized_Motion_pl05
version=1
nRows=16
nColumns=43
inDegrees=yes
endheader
time		pelvis_tilt		pelvis_list		pelvis_rotation		pelvis_tx		pelvis_ty		pelvis_tz		hip_flexion_r		hip_adduction_r		hip_rotation_r		knee_angle_r		ankle_angle_r		subtalar_angle_r		mtp_angle_r		hip_flexion_l		hip_adduction_l		hip_rotation_l		knee_angle_l		ankle_angle_l		subtalar_angle_l		mtp_angle_l		lumbar_extension		lumbar_bending		lumbar_rotation		neck_flexion		neck_lateral_bending		neck_rotation		arm_flex_r		arm_add_r		arm_rot_r		elbow_flex_r		pro_sup_r		wrist_flex_r		wrist_dev_r		hand_finger_flex_r		arm_flex_l		arm_add_l		arm_rot_l		elbow_flex_l		pro_sup_l		wrist_flex_l		wrist_dev_l		hand_finger_flex_l		
3.643636		-2.257491		-7.851322		97.513351		0.003531		0.463045		0.473495		96.047964		-12.477335		5.741079		-125.629375		19.783975		19.662392		17.113542		95.906774		-8.715684		-0.635766		-121.885442		13.610561		21.201745		36.345198		-65.689018		-1.868268		-1.554535		19.390367		12.272168		-7.220593		97.644331		-25.069510		11.726757		56.260483		117.071353		-12.329299		-8.857923		-32.225223		105.454510		-23.789311		33.241752		61.292829		134.854980		-26.654905		-14.685250		-10.425294		
3.646818		-2.230353		-8.214959		97.510805		0.003621		0.460936		0.473237		96.583989		-12.786568		5.650095		-125.858988		20.069717		19.903178		17.269714		96.282310		-9.041442		-0.567045		-122.040765		14.166472		21.853452		36.378483		-65.504295		-1.851052		-1.768009		19.723811		12.265211		-7.153160		99.189788		-24.500958		12.090605		55.560772		116.765917		-12.272102		-8.859362		-32.138032		107.281945		-23.134337		33.639104		60.288191		134.443683		-26.256667		-14.349131		-10.468206		
3.650000		-2.207192		-8.373890		97.481947		0.003945		0.459127		0.472852		96.898742		-13.018146		5.497908		-126.134701		20.370482		20.217613		17.505971		96.447102		-9.346306		-0.398918		-122.245157		15.159961		23.571286		36.426367		-65.544736		-1.928990		-1.960872		20.076412		12.553649		-7.151023		100.809994		-24.160171		12.770661		54.600464		115.817747		-12.262436		-9.648716		-32.105266		109.474106		-22.613947		34.678185		59.148965		133.520350		-25.673879		-14.282805		-10.643816		
3.653182		-2.168676		-8.628075		97.403463		0.004195		0.457228		0.472505		97.349979		-13.232151		5.278842		-126.373243		20.516038		20.202327		17.671259		96.737579		-9.652265		-0.259609		-122.430882		15.668211		24.334691		36.453926		-65.457319		-1.995943		-2.100723		20.406648		12.591758		-7.117671		102.360882		-23.753743		13.362782		53.795171		115.427371		-12.192716		-9.869195		-32.092551		111.397091		-22.009745		35.348066		58.045468		133.175529		-25.209949		-14.141950		-10.790337		
3.656364		-2.121005		-8.799038		97.298996		0.004473		0.455563		0.472071		97.711026		-13.406562		5.039829		-126.597331		20.611986		20.150803		17.857723		96.942061		-9.972578		-0.099526		-122.626114		16.166444		25.279937		36.484982		-65.444451		-2.090198		-2.206118		20.749938		12.737874		-7.128409		103.855390		-23.260118		13.804814		52.903248		114.817238		-12.211394		-10.133951		-32.117109		113.204117		-21.309961		35.905174		56.937180		132.589612		-24.806606		-13.959835		-11.015355		
3.659545		-2.068623		-9.018910		97.191295		0.004810		0.453742		0.471636		98.167155		-13.565027		4.758716		-126.851271		20.573543		20.074102		17.961194		97.252835		-10.238298		0.078977		-122.838071		16.504720		26.018039		36.505425		-65.368264		-2.197737		-2.309696		21.054687		12.786293		-7.163831		105.318253		-22.908122		14.358195		52.125775		114.783939		-12.063438		-10.258755		-32.101422		115.041485		-20.693285		36.520517		55.840104		132.574206		-24.263723		-13.909389		-11.121694		
3.662727		-2.020736		-9.225314		97.081041		0.005008		0.452003		0.471117		98.606726		-13.700664		4.531848		-127.106074		20.584920		19.996862		18.028187		97.584485		-10.516783		0.201845		-123.062277		16.738739		26.496426		36.519226		-65.276838		-2.293287		-2.396218		21.357946		12.820194		-7.175892		106.675988		-22.375663		14.588580		51.328633		114.688775		-11.963810		-10.134478		-32.099048		116.551247		-19.937209		36.737556		54.857968		132.449668		-23.867794		-13.665553		-11.225119		
3.665909		-1.889174		-9.135667		96.767850		0.005865		0.450837		0.470546		98.690268		-13.518786		4.120104		-127.287254		20.283655		19.636037		18.249887		97.655243		-11.035872		0.558376		-123.340351		17.014093		27.686900		36.557571		-65.510063		-2.589954		-2.272363		21.693253		13.118111		-7.262751		108.241711		-22.078896		15.288969		50.216033		114.487513		-12.044589		-10.651057		-32.182450		118.579919		-19.280974		37.764234		53.511071		132.025164		-23.395265		-13.887286		-11.810374		
3.669091		-1.828945		-9.298265		96.595290		0.006132		0.449140		0.469975		99.118743		-13.561130		3.890504		-127.531634		20.190204		19.574076		18.361310		98.020647		-11.296733		0.711949		-123.615857		17.117851		27.920158		36.573371		-65.427423		-2.723483		-2.312131		21.922896		13.111749		-7.271173		109.622113		-21.690757		15.846374		49.368647		114.730084		-11.899339		-10.554836		-32.168935		120.146232		-18.674025		38.276477		52.508713		132.157590		-22.996433		-13.769522		-12.038969		
3.672273		-1.789013		-9.441721		96.458481		0.006294		0.447354		0.469234		99.544895		-13.637293		3.731355		-127.837522		20.144033		19.541905		18.425791		98.393263		-11.516671		0.815959		-123.924374		17.206369		28.067837		36.582691		-65.315848		-2.830508		-2.371045		22.189230		13.113461		-7.276607		110.864505		-21.185961		16.154777		48.524337		114.869428		-11.756328		-10.344651		-32.159722		121.453264		-17.981735		38.497270		51.600365		132.228262		-22.660840		-13.522785		-12.170378		
3.675455		-1.727436		-9.515015		96.250974		0.006561		0.446027		0.468685		99.846988		-13.555265		3.601291		-128.032973		19.905755		19.528852		18.518427		98.685559		-11.740159		0.974074		-124.178498		17.200930		28.120211		36.592193		-65.340051		-2.987566		-2.333656		22.367831		13.178420		-7.299476		112.328444		-20.855461		16.792002		47.491659		115.278036		-11.562709		-10.481195		-32.189158		123.029825		-17.376754		39.082517		50.562829		132.556968		-22.271021		-13.542851		-12.436481		
3.678636		-1.676472		-9.512609		96.047387		0.006728		0.444623		0.467922		100.089696		-13.581369		3.457336		-128.287679		19.726756		19.553112		18.628477		98.935829		-11.981080		1.072375		-124.510796		17.170651		27.950450		36.600941		-65.366258		-3.133235		-2.341677		22.574725		13.201444		-7.284205		113.669531		-20.393616		17.331349		46.371654		115.556049		-11.384378		-10.655449		-32.283089		124.372537		-16.710950		39.445663		49.518644		132.755190		-21.978828		-13.517978		-12.805211		
3.681818		-1.632627		-9.525265		95.897029		0.006794		0.442986		0.466973		100.370257		-13.672438		3.364362		-128.619779		19.634885		19.612705		18.718460		99.220014		-12.181102		1.130613		-124.885269		17.155575		27.738965		36.607690		-65.313492		-3.231149		-2.373030		22.788009		13.193262		-7.254202		114.852634		-19.912281		17.787034		45.345791		115.788031		-11.181789		-10.684259		-32.362896		125.514670		-16.057597		39.669060		48.588879		132.916673		-21.709092		-13.412813		-13.093068		
3.685000		-1.585527		-9.585620		95.754158		0.006689		0.441796		0.466341		100.623413		-13.690975		3.348730		-128.819802		19.498181		19.828222		18.811453		99.500400		-12.248579		1.164999		-125.150345		17.047910		27.297827		36.612539		-65.295721		-3.287108		-2.345647		22.865604		13.168209		-7.204630		116.235689		-19.559926		18.478642		44.262778		116.256711		-10.847968		-10.801304		-32.457315		126.778400		-15.455949		40.000788		47.644552		133.296769		-21.391996		-13.429572		-13.381161		
3.688182		-1.547658		-9.572975		95.661612		0.006629		0.440168		0.465289		100.862414		-13.875102		3.293030		-129.178661		19.439400		20.050223		18.887366		99.759155		-12.425181		1.164186		-125.542716		16.949421		26.879876		36.617248		-65.212382		-3.324460		-2.402349		23.050562		13.084353		-7.145312		117.334552		-19.083477		18.982587		43.227448		116.570680		-10.524417		-10.763989		-32.560853		127.725381		-14.804245		40.092484		46.742181		133.503135		-21.118492		-13.304822		-13.617830		
3.691364		-1.490481		-9.497956		95.550964		0.006345		0.439132		0.464521		100.951597		-13.966455		3.315863		-129.401066		19.313678		20.436335		19.019428		99.893701		-12.490826		1.183389		-125.842887		16.730675		26.204689		36.625586		-65.272477		-3.320640		-2.381623		23.108735		12.941139		-7.057740		118.665054		-18.665299		19.684176		42.007483		117.027720		-10.108484		-11.002486		-32.790290		128.797934		-14.174522		40.240772		45.754163		133.819509		-20.835792		-13.379160		-14.056208		
